<svg xmlns="http://www.w3.org/2000/svg" width="115" height="44" viewBox="0 0 115 44">
  <metadata><?xpacket begin="﻿" id="W5M0MpCehiHzreSzNTczkc9d"?>
<x:xmpmeta xmlns:x="adobe:ns:meta/" x:xmptk="Adobe XMP Core 5.6-c142 79.160924, 2017/07/13-01:06:39        ">
   <rdf:RDF xmlns:rdf="http://www.w3.org/1999/02/22-rdf-syntax-ns#">
      <rdf:Description rdf:about=""/>
   </rdf:RDF>
</x:xmpmeta>
                                                                                                    
                                                                                                    
                                                                                                    
                                                                                                    
                                                                                                    
                                                                                                    
                                                                                                    
                                                                                                    
                                                                                                    
                                                                                                    
                                                                                                    
                                                                                                    
                                                                                                    
                                                                                                    
                                                                                                    
                                                                                                    
                                                                                                    
                                                                                                    
                                                                                                    
                                                                                                    
                           
<?xpacket end="w"?></metadata>
<defs>
    <style>
      .cls-1 {
        fill: #3172b9;
        fill-rule: evenodd;
      }
    </style>
  </defs>
  <path id="Logo" class="cls-1" d="M186,3284.44v-25.11h3.226v21.84h8.913v3.27H186Zm21.012-25.11v25.11h-3.226v-25.11h3.226ZM235,3262.76a12.917,12.917,0,0,1,0,18.18,12.681,12.681,0,0,1-18.045,0,12.919,12.919,0,0,1,0-18.18A12.705,12.705,0,0,1,235,3262.76Zm-9.022-.48a9.116,9.116,0,0,0-6.724,2.8,9.633,9.633,0,0,0,.008,13.55,9.44,9.44,0,0,0,13.44,0,9.641,9.641,0,0,0,0-13.55A9.117,9.117,0,0,0,225.981,3262.28Zm18.659-2.95h2.945l10.284,17.92v-17.92h3.242v25.11H258.29l-10.425-18.14v18.14H244.64v-25.11Zm26.278,0v25.11h-3.226v-25.11h3.226Zm25.89,19.13,2.415,2.18q-4.425,4.065-9.365,4.07a12.228,12.228,0,0,1-9.007-3.75,12.917,12.917,0,0,1,0-18.15,12.208,12.208,0,0,1,9.007-3.77q4.94,0,9.365,4.07l-2.415,2.21a10.34,10.34,0,0,0-6.95-2.98,9.109,9.109,0,0,0-6.693,2.79,9.6,9.6,0,0,0,0,13.52,9.109,9.109,0,0,0,6.693,2.79A10.34,10.34,0,0,0,296.808,3278.46Zm-57.831,21.4h3.345v0.68h-4.075v-7.23h0.73v6.55Zm4.561-1.53a2.127,2.127,0,0,0,.172.68,1.74,1.74,0,0,0,.375.54,1.679,1.679,0,0,0,.537.36,1.613,1.613,0,0,0,.66.14,1.738,1.738,0,0,0,.927-0.25,1.881,1.881,0,0,0,.593-0.58l0.517,0.43a2.628,2.628,0,0,1-.938.78,2.7,2.7,0,0,1-1.1.23,2.439,2.439,0,0,1-.979-0.19,2.4,2.4,0,0,1-.775-0.52,2.533,2.533,0,0,1-.512-0.8,2.788,2.788,0,0,1,0-2,2.452,2.452,0,0,1,.507-0.8,2.44,2.44,0,0,1,2.665-.52,2.086,2.086,0,0,1,.715.52,2.142,2.142,0,0,1,.441.75,2.808,2.808,0,0,1,.153.93v0.3h-3.954Zm3.223-.55a1.565,1.565,0,0,0-.405-1.11,1.5,1.5,0,0,0-1.135-.42,1.529,1.529,0,0,0-.629.13,1.726,1.726,0,0,0-.9.83,1.247,1.247,0,0,0-.137.57h3.2Zm2.311,3.72a2.317,2.317,0,0,0,.765.64,2.285,2.285,0,0,0,1.05.24,2.209,2.209,0,0,0,.861-0.15,1.525,1.525,0,0,0,.573-0.41,1.587,1.587,0,0,0,.315-0.59,2.734,2.734,0,0,0,.095-0.73v-0.86h-0.019a1.77,1.77,0,0,1-.791.69,2.374,2.374,0,0,1-.984.21,2.4,2.4,0,0,1-.967-0.19,2.477,2.477,0,0,1-.786-0.5,2.371,2.371,0,0,1-.527-0.77,2.452,2.452,0,0,1-.193-0.97,2.536,2.536,0,0,1,.685-1.76,2.233,2.233,0,0,1,.759-0.52,2.561,2.561,0,0,1,1.419-.15,2.137,2.137,0,0,1,.477.14,2.229,2.229,0,0,1,.471.28,2.147,2.147,0,0,1,.437.46h0.019v-0.8H253.4v4.74a3.848,3.848,0,0,1-.095.82,1.994,1.994,0,0,1-.376.81,2.04,2.04,0,0,1-.775.61,2.853,2.853,0,0,1-1.3.25,3.177,3.177,0,0,1-1.267-.24,2.811,2.811,0,0,1-1.014-.72Zm0.122-3.41a1.833,1.833,0,0,0,.137.71,1.9,1.9,0,0,0,.375.58,1.791,1.791,0,0,0,.557.4,1.61,1.61,0,0,0,.695.14,1.81,1.81,0,0,0,.694-0.13,1.855,1.855,0,0,0,.583-0.37,1.588,1.588,0,0,0,.39-0.58,1.809,1.809,0,0,0,.127-0.75,2.03,2.03,0,0,0-.122-0.71,1.635,1.635,0,0,0-.355-0.58,1.683,1.683,0,0,0-.567-0.4,1.813,1.813,0,0,0-.75-0.15,1.616,1.616,0,0,0-.695.15,1.851,1.851,0,0,0-.932.98A1.833,1.833,0,0,0,249.194,3298.09Zm8.748-.48v-0.13a1.081,1.081,0,0,0-1.216-1.23,2.1,2.1,0,0,0-1.45.56l-0.406-.48a2.678,2.678,0,0,1,2.007-.69,2.1,2.1,0,0,1,.664.1,1.523,1.523,0,0,1,.553.31,1.48,1.48,0,0,1,.375.53,1.825,1.825,0,0,1,.141.75v2.14c0,0.18.01,0.37,0.026,0.57s0.036,0.37.056,0.5h-0.649a3.674,3.674,0,0,1-.045-0.38c-0.01-.14-0.015-0.27-0.015-0.4h-0.021a1.824,1.824,0,0,1-.694.69,2.269,2.269,0,0,1-1.587.12,1.4,1.4,0,0,1-.887-0.7,1.323,1.323,0,0,1-.136-0.61,1.3,1.3,0,0,1,.3-0.91,1.856,1.856,0,0,1,.75-0.5,3.728,3.728,0,0,1,.962-0.2c0.342-.03.655-0.04,0.938-0.04h0.335Zm-0.344.55c-0.17,0-.381.01-0.634,0.02a3.473,3.473,0,0,0-.73.13,1.481,1.481,0,0,0-.6.3,0.673,0.673,0,0,0-.248.56,0.774,0.774,0,0,0,.1.4,0.742,0.742,0,0,0,.258.28,1.107,1.107,0,0,0,.36.15,1.81,1.81,0,0,0,.4.05,1.4,1.4,0,0,0,.634-0.13,1.274,1.274,0,0,0,.451-0.33,1.314,1.314,0,0,0,.269-0.49,1.981,1.981,0,0,0,.086-0.6v-0.34H257.6Zm3.385,2.38h-0.669v-7.72h0.669v7.72Zm8.068-6.04a1.566,1.566,0,0,0-1.389-.7,1.763,1.763,0,0,0-.557.08,1.607,1.607,0,0,0-.491.23,1.182,1.182,0,0,0-.35.41,1.247,1.247,0,0,0-.132.59,1.032,1.032,0,0,0,.274.76,2.054,2.054,0,0,0,.679.44,6.521,6.521,0,0,0,.887.31,4.109,4.109,0,0,1,.886.37,2.1,2.1,0,0,1,.68.61,1.712,1.712,0,0,1,.273,1.03,1.838,1.838,0,0,1-.207.88,2.087,2.087,0,0,1-.548.66,2.619,2.619,0,0,1-.76.41,2.768,2.768,0,0,1-.847.14,3.13,3.13,0,0,1-1.251-.25,2.417,2.417,0,0,1-1.009-.82l0.669-.48a1.8,1.8,0,0,0,.647.64,1.921,1.921,0,0,0,.98.24,1.735,1.735,0,0,0,.546-0.09,1.481,1.481,0,0,0,.49-0.26,1.31,1.31,0,0,0,.359-0.41,1.094,1.094,0,0,0,.141-0.56,1.187,1.187,0,0,0-.157-0.63,1.41,1.41,0,0,0-.416-0.42,2.968,2.968,0,0,0-.588-0.28c-0.219-.07-0.446-0.15-0.679-0.22s-0.459-.16-0.679-0.26a2.107,2.107,0,0,1-.588-0.36,1.658,1.658,0,0,1-.415-0.55,1.935,1.935,0,0,1-.158-0.83,1.975,1.975,0,0,1,.2-0.91,1.865,1.865,0,0,1,.527-0.64,2.208,2.208,0,0,1,.745-0.38,3.063,3.063,0,0,1,.851-0.13,3.008,3.008,0,0,1,1.106.2,2.456,2.456,0,0,1,.922.68Zm6.792,3.65a2.637,2.637,0,0,1-.188,1,2.441,2.441,0,0,1-.522.8,2.5,2.5,0,0,1-.795.52,2.594,2.594,0,0,1-1.019.19,2.562,2.562,0,0,1-1.009-.19,2.48,2.48,0,0,1-.8-0.52,2.428,2.428,0,0,1-.523-0.8,2.636,2.636,0,0,1-.187-1,2.6,2.6,0,0,1,.187-1,2.428,2.428,0,0,1,.523-0.8,2.325,2.325,0,0,1,.8-0.52,2.562,2.562,0,0,1,1.009-.19,2.594,2.594,0,0,1,1.019.19,2.344,2.344,0,0,1,.795.52,2.441,2.441,0,0,1,.522.8A2.6,2.6,0,0,1,275.843,3298.15Zm-0.73,0a2.147,2.147,0,0,0-.127-0.75,1.779,1.779,0,0,0-.36-0.6,1.7,1.7,0,0,0-.562-0.4,1.925,1.925,0,0,0-1.49,0,1.646,1.646,0,0,0-.558.4,1.852,1.852,0,0,0-.355.6,2.249,2.249,0,0,0,0,1.49,1.9,1.9,0,0,0,.355.61,1.646,1.646,0,0,0,.558.4,1.925,1.925,0,0,0,1.49,0,1.7,1.7,0,0,0,.562-0.4,1.825,1.825,0,0,0,.36-0.61A2.131,2.131,0,0,0,275.113,3298.15Zm2.767,2.39h-0.669v-7.72h0.669v7.72Zm5.037,0q-0.019-.2-0.024-0.39c0-.12-0.006-0.25-0.006-0.38h-0.02a1.58,1.58,0,0,1-.284.36,1.889,1.889,0,0,1-.385.28,1.833,1.833,0,0,1-.451.18,1.555,1.555,0,0,1-.471.07,1.734,1.734,0,0,1-1.349-.48,2.031,2.031,0,0,1-.436-1.39v-3.03h0.67v2.64a3.677,3.677,0,0,0,.061.71,1.335,1.335,0,0,0,.207.51,0.91,0.91,0,0,0,.4.32,1.6,1.6,0,0,0,.624.11c0.033,0,.128-0.02.284-0.04a1.337,1.337,0,0,0,.492-0.23,1.567,1.567,0,0,0,.461-0.55,2.144,2.144,0,0,0,.2-1.02v-2.45h0.669v3.73c0,0.13.006,0.29,0.015,0.49s0.022,0.38.036,0.56h-0.69Zm4.664-4.17h-1.369v2.82a1.477,1.477,0,0,0,.051.43,0.562,0.562,0,0,0,.142.26,0.4,0.4,0,0,0,.218.13,0.826,0.826,0,0,0,.279.04,1.488,1.488,0,0,0,.354-0.05,1.659,1.659,0,0,0,.335-0.14l0.03,0.63a2.226,2.226,0,0,1-.9.17,1.92,1.92,0,0,1-.4-0.05,0.971,0.971,0,0,1-.379-0.2,1.017,1.017,0,0,1-.285-0.38,1.616,1.616,0,0,1-.111-0.65v-3.01h-1v-0.61h1v-1.35h0.669v1.35h1.369v0.61Zm1.885-2.45a0.452,0.452,0,0,1-.152.35,0.47,0.47,0,0,1-.669,0,0.477,0.477,0,0,1,0-.7,0.47,0.47,0,0,1,.669,0A0.452,0.452,0,0,1,289.466,3293.92Zm-0.152,6.62h-0.669v-4.78h0.669v4.78Zm6.406-2.39a2.656,2.656,0,0,1-.187,1,2.474,2.474,0,0,1-.522.8,2.518,2.518,0,0,1-.8.52,2.591,2.591,0,0,1-1.019.19,2.557,2.557,0,0,1-1.008-.19,2.324,2.324,0,0,1-1.319-1.32,2.636,2.636,0,0,1-.187-1,2.6,2.6,0,0,1,.187-1,2.46,2.46,0,0,1,.523-0.8,2.329,2.329,0,0,1,.8-0.52,2.557,2.557,0,0,1,1.008-.19,2.591,2.591,0,0,1,1.019.19,2.358,2.358,0,0,1,.8.52,2.474,2.474,0,0,1,.522.8A2.619,2.619,0,0,1,295.72,3298.15Zm-0.73,0a2.17,2.17,0,0,0-.126-0.75,1.8,1.8,0,0,0-.361-0.6,1.692,1.692,0,0,0-.562-0.4,1.925,1.925,0,0,0-1.49,0,1.656,1.656,0,0,0-.558.4,1.852,1.852,0,0,0-.355.6,2.265,2.265,0,0,0,0,1.49,1.9,1.9,0,0,0,.355.61,1.656,1.656,0,0,0,.558.4,1.925,1.925,0,0,0,1.49,0,1.692,1.692,0,0,0,.562-0.4,1.844,1.844,0,0,0,.361-0.61A2.154,2.154,0,0,0,294.99,3298.15Zm2.584-2.39c0.014,0.13.022,0.26,0.026,0.38s0,0.26,0,.39h0.02a1.6,1.6,0,0,1,.283-0.36,1.924,1.924,0,0,1,.386-0.28,2.364,2.364,0,0,1,.451-0.19,1.927,1.927,0,0,1,.472-0.06,1.735,1.735,0,0,1,1.348.48,2,2,0,0,1,.435,1.38v3.04h-0.669v-2.65a2.269,2.269,0,0,0-.274-1.22,1.117,1.117,0,0,0-1.013-.42,1.927,1.927,0,0,0-.283.04,1.288,1.288,0,0,0-.492.22,1.672,1.672,0,0,0-.461.56,2.1,2.1,0,0,0-.2,1.02v2.45h-0.669v-3.73c0-.13,0-0.29-0.016-0.49s-0.021-.38-0.035-0.56h0.689Zm-68.592,1.97H186v-1.35h42.984v1.35Z" transform="translate(-186 -3259)"/>
</svg>
